<?xml version="1.0" standalone="no"?>
<!DOCTYPE svg PUBLIC "-//W3C//DTD SVG 20010904//EN"
 "http://www.w3.org/TR/2001/REC-SVG-20010904/DTD/svg10.dtd">
<svg version="1.0" xmlns="http://www.w3.org/2000/svg"
 width="512.000000pt" height="512.000000pt" viewBox="0 0 512.000000 512.000000"
 preserveAspectRatio="xMidYMid meet">

<g transform="translate(0.000000,512.000000) scale(0.100000,-0.100000)"
fill="#000000" stroke="none">
<path d="M2445 3876 c-44 -7 -100 -19 -125 -26 -58 -16 -181 -72 -242 -112
-42 -26 -55 -30 -101 -26 -61 5 -143 44 -208 98 l-47 39 -4 -30 c-14 -93 30
-209 109 -285 l52 -50 -29 -45 c-96 -143 -124 -370 -64 -518 l16 -41 -36 -41
c-115 -127 -173 -275 -183 -469 -13 -273 99 -577 279 -753 55 -53 62 -57 76
-43 14 13 21 10 70 -35 29 -27 73 -61 97 -75 39 -22 42 -27 36 -52 l-8 -27
-144 -1 c-79 0 -164 -1 -189 -2 l-45 -2 53 -31 53 -30 137 6 137 6 20 -43 c26
-54 41 -58 49 -12 7 32 9 34 20 18 9 -12 20 -15 37 -11 18 5 30 -1 51 -23 35
-39 54 -38 68 6 l12 36 32 -30 c35 -34 135 -92 158 -92 8 0 54 24 102 54 l86
55 15 -30 c9 -16 20 -29 25 -29 11 0 50 41 50 53 0 5 14 6 30 2 19 -4 36 -2
45 5 13 11 15 7 15 -19 0 -47 27 -39 51 14 l20 45 164 0 c139 0 169 3 193 18
16 9 30 20 31 25 0 4 -82 8 -183 10 -101 1 -187 4 -189 7 -3 3 -8 16 -11 30
-6 22 0 29 45 55 28 17 71 52 95 79 27 29 44 42 44 32 0 -32 29 -15 95 56 86
93 137 168 190 282 78 164 108 290 108 446 -1 187 -55 338 -161 451 l-61 66
15 48 c52 175 32 342 -59 492 l-35 57 47 42 c78 71 140 215 125 292 l-6 30
-70 -53 c-118 -89 -245 -110 -320 -53 -141 108 -425 168 -633 134z m365 -72
c53 -13 135 -43 185 -69 50 -25 97 -45 104 -45 20 0 6 -56 -24 -102 -33 -49
-89 -90 -195 -142 -120 -58 -195 -131 -256 -248 l-47 -92 -40 83 c-55 117
-130 190 -267 260 -110 57 -188 121 -214 176 -23 48 -21 65 9 65 13 0 53 15
87 34 204 112 422 138 658 80z m-785 -372 c33 -11 101 -28 150 -37 178 -33
246 -86 320 -253 l28 -62 -32 -59 c-17 -32 -31 -72 -31 -89 0 -37 -49 -83
-130 -121 -46 -22 -69 -26 -140 -25 -133 1 -227 51 -302 160 -53 77 -75 181
-59 278 18 111 97 260 125 237 6 -5 38 -18 71 -29z m1238 1 c14 -21 39 -65 54
-98 25 -54 28 -71 28 -165 0 -99 -2 -110 -33 -172 -109 -222 -405 -287 -585
-129 -28 25 -36 38 -31 55 3 14 -7 46 -30 89 l-36 67 45 90 c80 160 132 196
326 229 110 19 192 43 214 63 15 13 21 10 48 -29z m-643 -445 c23 -53 25 -72
8 -62 -6 4 -8 3 -4 -4 3 -5 -7 -50 -23 -99 -32 -99 -28 -101 -72 26 -24 67
-24 88 0 143 15 35 23 43 44 43 22 0 30 -8 47 -47z m-88 -270 c17 -27 34 -48
39 -48 4 0 32 38 60 85 l52 85 31 -21 c59 -39 137 -71 194 -79 61 -8 170 3
204 21 11 6 21 9 22 7 90 -115 136 -204 165 -319 79 -308 -15 -626 -262 -885
-59 -63 -74 -74 -103 -74 -18 0 -45 -5 -59 -12 -19 -9 -28 -9 -37 0 -7 7 -29
12 -50 12 -49 0 -88 -35 -88 -80 l0 -30 -109 0 -108 0 -7 30 c-9 47 -48 80
-94 80 -23 0 -45 -6 -52 -15 -11 -13 -15 -13 -33 0 -12 8 -38 15 -58 15 -33 0
-45 8 -103 69 -134 138 -199 251 -242 417 -20 80 -25 123 -25 224 0 69 5 150
11 180 25 130 85 266 157 355 21 25 25 26 54 16 87 -30 248 -3 334 58 l40 28
19 -36 c10 -20 32 -57 48 -83z m847 -216 c47 -75 64 -150 59 -261 -5 -93 -22
-155 -56 -209 -22 -34 -24 -22 -7 49 32 136 12 359 -41 461 -15 29 -15 31 -1
20 9 -8 29 -35 46 -60z m-1534 -16 c-38 -112 -49 -222 -37 -346 6 -58 14 -115
18 -125 6 -18 5 -19 -10 -5 -9 9 -25 42 -37 75 -25 72 -28 211 -5 292 13 49
84 189 91 181 2 -2 -7 -34 -20 -72z m433 -1048 c17 -17 15 -74 -4 -93 -15 -15
-18 -15 -36 2 -15 14 -23 15 -38 5 -13 -8 -21 -8 -25 -1 -9 14 3 61 22 82 18
20 63 23 81 5z m140 -4 c14 -10 22 -25 22 -45 0 -27 -2 -29 -21 -19 -26 15
-44 1 -60 -47 l-12 -36 -13 24 c-17 30 -18 73 -3 102 22 40 50 47 87 21z m410
-1 c30 -26 35 -62 14 -108 l-19 -40 -13 40 c-17 55 -26 62 -50 40 -20 -18 -20
-18 -20 18 0 60 45 86 88 50z m154 -14 c26 -34 16 -84 -12 -66 -15 9 -23 8
-38 -6 -23 -21 -36 -10 -46 39 -14 62 57 86 96 33z"/>
<path d="M2152 3330 c-48 -29 -72 -75 -72 -138 0 -47 4 -57 39 -94 35 -38 43
-42 98 -46 58 -4 62 -3 101 32 22 20 45 50 52 66 25 60 -13 146 -79 180 -51
25 -97 25 -139 0z m95 -68 c9 -35 -22 -58 -51 -38 -27 18 -32 47 -12 62 24 17
55 6 63 -24z m-52 -152 c43 -14 100 1 116 32 6 11 13 17 16 15 11 -11 -18 -45
-52 -61 -47 -23 -98 -13 -130 26 -14 16 -25 35 -25 41 0 7 10 0 21 -15 11 -15
35 -32 54 -38z"/>
<path d="M2858 3330 c-67 -36 -100 -109 -78 -174 6 -19 29 -51 51 -70 34 -31
46 -36 90 -36 62 0 101 19 134 67 33 49 33 103 0 158 -41 72 -122 94 -197 55z
m80 -42 c17 -17 15 -53 -3 -68 -24 -20 -65 3 -65 34 0 37 43 59 68 34z m-43
-178 c42 -14 71 -6 108 28 15 14 27 21 27 16 0 -15 -52 -61 -78 -69 -45 -13
-132 38 -132 78 0 5 9 -2 20 -16 11 -14 36 -31 55 -37z"/>
<path d="M2902 2463 c29 -65 29 -160 -1 -227 -25 -57 -22 -69 8 -27 56 79 61
152 16 241 -32 64 -50 74 -23 13z"/>
<path d="M2240 2453 c-49 -77 -53 -171 -11 -235 l22 -33 -6 35 c-3 19 -8 65
-12 102 -4 57 -2 74 20 122 14 31 24 56 21 56 -2 0 -18 -21 -34 -47z"/>
<path d="M2290 2154 c0 -13 48 -59 55 -52 3 2 -9 17 -25 33 -17 16 -30 24 -30
19z"/>
<path d="M2809 2120 c-15 -17 -23 -30 -19 -30 12 0 60 41 60 51 0 16 -14 9
-41 -21z"/>
<path d="M2400 1993 c0 -4 10 -21 22 -39 38 -56 102 -81 127 -50 9 11 5 15
-24 20 -19 4 -55 22 -80 41 -25 19 -45 32 -45 28z"/>
<path d="M2745 1980 c-11 -17 -102 -60 -130 -60 -28 0 -34 -15 -9 -24 44 -17
96 5 132 54 13 17 22 34 19 36 -3 3 -8 0 -12 -6z"/>
<path d="M2825 1860 c-37 -39 -102 -70 -146 -70 -32 -1 -33 -1 -15 -15 49 -37
132 -1 174 74 13 22 22 41 20 41 -3 0 -17 -14 -33 -30z"/>
<path d="M2290 1869 c0 -8 15 -31 33 -52 39 -46 98 -69 139 -55 42 15 44 28 5
28 -45 0 -98 23 -142 61 -21 18 -35 26 -35 18z"/>
</g>
</svg>
